<svg xmlns="http://www.w3.org/2000/svg" viewBox="0 0 980 980"><defs><style>.cls-1{fill:#f5f5f5;}</style></defs><g id="Layer_2" data-name="Layer 2"><g id="Layer_1-2" data-name="Layer 1"><path class="cls-1" d="M163.33,8.17A155.17,155.17,0,1,0,318.5,163.33,155.15,155.15,0,0,0,163.33,8.17m0,236.82A81.67,81.67,0,1,1,245,163.33,81.66,81.66,0,0,1,163.33,245"/><path class="cls-1" d="M653.33,0V326.67H392a65.34,65.34,0,0,1-65.33-65.33V0h67V259.7H586.37V0Z"/><path class="cls-1" d="M490,334.84A155.16,155.16,0,1,0,645.16,490,155.15,155.15,0,0,0,490,334.84m0,236.83A81.67,81.67,0,1,1,571.67,490,81.66,81.66,0,0,1,490,571.67"/><polygon class="cls-1" points="720.3 393.63 720.3 586.37 980 586.37 980 653.33 653.33 653.33 653.33 326.67 980 326.67 980 393.63 720.3 393.63"/><path class="cls-1" d="M898.34,816.67A81.67,81.67,0,1,1,816.67,735a81.67,81.67,0,0,1,81.67,81.66"/><path class="cls-1" d="M542,816.67,653.33,705.31v-52h-52L490,764.7,378.64,653.33h-52V392a65.34,65.34,0,0,0-65.33-65.33H0v67H259.7V586.37H0V705.31L111.37,816.67,0,928l52,52L163.33,868.63,274.7,980H378.64L490,868.63,601.37,980H705.31ZM52,653.33H274.7L163.33,764.7ZM326.67,928,215.31,816.67,326.67,705.31,438,816.67Z"/></g></g></svg>
